<svg xmlns="http://www.w3.org/2000/svg" xmlns:xlink="http://www.w3.org/1999/xlink" width="500" zoomAndPan="magnify" viewBox="0 0 375 374.999991" height="500" preserveAspectRatio="xMidYMid meet" version="1.0"><defs><g/><clipPath id="fc9db26926"><path d="M 156 209 L 218 209 L 218 265.9375 L 156 265.9375 Z M 156 209 " clip-rule="nonzero"/></clipPath><clipPath id="fab92774fd"><path d="M 119.855469 155 L 151 155 L 151 178 L 119.855469 178 Z M 119.855469 155 " clip-rule="nonzero"/></clipPath></defs><path fill="#6d6c6c" d="M 206.488281 172.507812 C 202.785156 175.011719 197.40625 176.316406 193.738281 179.839844 C 190.191406 183.242188 188.246094 188.707031 190.972656 199.300781 C 190.972656 199.300781 193.328125 199.554688 196.804688 200.476562 C 199.757812 201.253906 203.515625 202.511719 207.332031 204.492188 C 209.898438 205.828125 212.492188 207.492188 214.882812 209.558594 L 228.5 195.339844 C 228.5 195.339844 231 181.980469 225.257812 170.988281 C 224.382812 169.308594 223.308594 167.683594 222.007812 166.167969 L 222.023438 166.167969 C 222.367188 166.167969 228.816406 166.316406 234.515625 177.265625 C 234.515625 177.265625 241.800781 162.523438 252.25 160.460938 C 252.25 160.460938 252.402344 159.980469 252.597656 159.164062 C 253.359375 156.046875 254.847656 148.058594 251.457031 143.65625 C 250.019531 141.789062 248.957031 139.707031 248.222656 137.59375 C 246.777344 133.433594 246.605469 129.164062 247.34375 126.222656 C 247.34375 126.222656 247.109375 124.335938 245.933594 121.554688 C 244.785156 118.828125 242.734375 115.234375 239.117188 111.707031 C 235.882812 108.558594 231.394531 105.457031 225.171875 103.078125 L 232.773438 99.113281 C 232.773438 99.113281 231.738281 98.199219 229.816406 97.078125 C 226.800781 95.328125 221.597656 93.082031 214.75 93.082031 C 207.058594 93.082031 197.296875 95.914062 186.222656 105.453125 L 186.222656 166.488281 C 195.566406 165.378906 205.378906 160.464844 205.378906 160.464844 C 205.378906 160.464844 213.773438 167.597656 206.488281 172.507812 Z M 194.082031 133.554688 C 194.058594 133.421875 194.039062 133.289062 194.019531 133.152344 C 194.019531 133.152344 207.695312 141.410156 217.917969 130.292969 C 220.078125 127.941406 222.90625 126.292969 226.050781 125.757812 C 231.117188 124.894531 237.925781 125.859375 240.8125 135.785156 L 233.925781 135.785156 C 233.925781 135.785156 228.695312 150.632812 216.703125 149.679688 L 218.011719 157.410156 C 218.011719 157.410156 209.695312 152.414062 207.914062 143.855469 C 207.914062 143.855469 195.859375 144.316406 194.082031 133.554688 Z M 194.082031 133.554688 " fill-opacity="1" fill-rule="nonzero"/><g clip-path="url(#fc9db26926)"><path fill="#6d6c6c" d="M 208.710938 227.5 C 209.796875 231.359375 214.992188 235.476562 217.082031 238.898438 C 214.898438 244.054688 212.082031 248.730469 208.46875 253.003906 C 208.484375 247.597656 207.144531 242.992188 204.355469 238.367188 C 204.210938 243.65625 202.433594 248.886719 199.332031 253.167969 C 197.582031 255.582031 195.4375 257.679688 193.304688 259.765625 C 191.226562 261.796875 189.152344 263.828125 187.074219 265.859375 C 185 263.828125 182.921875 261.796875 180.847656 259.765625 C 178.714844 257.679688 176.570312 255.582031 174.820312 253.167969 C 171.71875 248.886719 169.941406 243.65625 169.796875 238.367188 C 167.003906 242.996094 165.667969 247.597656 165.683594 253.003906 C 163.765625 250.738281 162.070312 248.359375 160.578125 245.851562 C 159.257812 243.636719 158.09375 241.320312 157.070312 238.898438 C 159.089844 235.585938 163.175781 231.636719 164.417969 227.886719 C 164.457031 227.765625 164.496094 227.644531 164.53125 227.519531 L 160.984375 230.742188 L 156.875 234.480469 C 157.046875 234.164062 157.21875 233.847656 157.382812 233.53125 C 159.132812 230.183594 160.433594 226.601562 161.25 222.914062 C 161.601562 221.3125 161.867188 219.691406 162.035156 218.058594 C 165.769531 215.421875 170.792969 213.101562 175.890625 211.386719 C 183.152344 208.949219 191 208.949219 198.253906 211.386719 C 203.355469 213.101562 208.382812 215.421875 212.113281 218.058594 C 212.707031 223.804688 214.472656 229.425781 217.277344 234.476562 Z M 208.710938 227.5 " fill-opacity="1" fill-rule="nonzero"/></g><path fill="#404040" d="M 178.367188 133.554688 C 178.390625 133.421875 178.40625 133.289062 178.425781 133.152344 C 178.425781 133.152344 164.753906 141.410156 154.53125 130.292969 C 152.367188 127.941406 149.542969 126.292969 146.394531 125.757812 C 141.332031 124.894531 134.523438 125.859375 131.636719 135.785156 L 138.523438 135.785156 C 132.972656 135.945312 128.046875 136.738281 124.226562 137.59375 C 125.671875 133.433594 125.839844 129.160156 125.105469 126.21875 C 125.105469 126.21875 125.339844 124.332031 126.511719 121.550781 C 142.8125 109.410156 154.308594 121.78125 155.035156 121.78125 C 175.875 121.78125 179.890625 128.4375 179.890625 128.4375 C 179.507812 130.636719 178.953125 132.300781 178.367188 133.554688 Z M 178.367188 133.554688 " fill-opacity="1" fill-rule="nonzero"/><g clip-path="url(#fab92774fd)"><path fill="#404040" d="M 150.421875 166.167969 C 150.078125 166.167969 143.628906 166.316406 137.929688 177.265625 C 137.929688 177.265625 130.648438 162.523438 120.195312 160.460938 C 120.195312 160.460938 120.046875 159.976562 119.847656 159.164062 C 121.757812 156.828125 124.957031 154.769531 130.210938 155.269531 C 130.214844 155.269531 140.371094 165.878906 150.421875 166.167969 Z M 150.421875 166.167969 " fill-opacity="1" fill-rule="nonzero"/></g><path fill="#231f20" d="M 150.4375 166.167969 L 147.1875 170.988281 C 148.066406 169.308594 149.136719 167.683594 150.4375 166.167969 Z M 150.4375 166.167969 " fill-opacity="1" fill-rule="nonzero"/><path fill="#404040" d="M 181.476562 199.300781 C 181.476562 199.300781 179.117188 199.554688 175.640625 200.476562 C 169.519531 197.8125 162.023438 198.429688 155.824219 201.046875 C 155.824219 201.046875 161.523438 194.070312 173.242188 194.386719 C 173.242188 194.386719 168.019531 188.839844 155.828125 192.640625 C 156.0625 192.476562 164.960938 185.125 172.449219 185.90625 C 172.449219 185.90625 160.8125 181.785156 151.082031 185.03125 C 151.367188 184.796875 162.6875 175.753906 178.707031 179.839844 C 182.257812 183.238281 184.199219 188.707031 181.476562 199.300781 Z M 181.476562 199.300781 " fill-opacity="1" fill-rule="nonzero"/><path fill="#404040" d="M 172.605469 108.066406 C 155.019531 101.234375 140.46875 107.402344 133.332031 111.707031 C 136.566406 108.554688 141.050781 105.453125 147.273438 103.074219 L 139.671875 99.109375 C 139.671875 99.109375 140.707031 98.195312 142.632812 97.074219 C 163.25 95.589844 172.605469 108.066406 172.605469 108.066406 Z M 172.605469 108.066406 " fill-opacity="1" fill-rule="nonzero"/><path fill="#d49b35" d="M 146.480469 133.152344 C 146.480469 133.152344 144.105469 138.53125 149.570312 141.460938 C 155.03125 144.390625 159.484375 141.773438 159.484375 141.773438 L 151.054688 133.867188 L 154.023438 138.566406 Z M 146.480469 133.152344 " fill-opacity="1" fill-rule="nonzero"/><path fill="#404040" d="M 186.222656 23.015625 L 162.15625 38.550781 C 162.15625 38.550781 176.25 56.304688 173.242188 70.414062 C 173.242188 70.414062 143.632812 76.917969 147.113281 46.636719 L 124.222656 55.988281 C 124.222656 55.988281 132.230469 68.355469 135.398438 85.320312 C 135.398438 85.320312 161.523438 72.160156 186.222656 90.867188 L 186.222656 71.183594 C 184.539062 65.425781 178.988281 47.617188 173.4375 42.554688 L 186.222656 32.449219 Z M 138.761719 75.488281 L 133.332031 60.507812 L 140.070312 56.941406 C 142.445312 71.445312 138.761719 75.488281 138.761719 75.488281 Z M 138.761719 75.488281 " fill-opacity="1" fill-rule="nonzero"/><path fill="#404040" d="M 194.082031 133.554688 C 194.058594 133.421875 194.039062 133.289062 194.019531 133.152344 C 194.019531 133.152344 207.695312 141.410156 217.917969 130.292969 C 220.078125 127.941406 222.90625 126.292969 226.050781 125.757812 C 231.117188 124.894531 237.925781 125.859375 240.8125 135.785156 L 233.925781 135.785156 C 239.476562 135.945312 244.398438 136.738281 248.222656 137.59375 C 246.777344 133.433594 246.605469 129.160156 247.34375 126.21875 C 247.34375 126.21875 247.109375 124.332031 245.933594 121.550781 C 229.636719 109.410156 218.140625 121.78125 217.414062 121.78125 C 196.570312 121.78125 192.558594 128.4375 192.558594 128.4375 C 192.9375 130.636719 193.496094 132.300781 194.082031 133.554688 Z M 194.082031 133.554688 " fill-opacity="1" fill-rule="nonzero"/><path fill="#404040" d="M 222.023438 166.167969 C 222.367188 166.167969 228.816406 166.316406 234.515625 177.265625 C 234.515625 177.265625 241.800781 162.523438 252.25 160.460938 C 252.25 160.460938 252.402344 159.976562 252.597656 159.164062 C 250.6875 156.828125 247.492188 154.769531 242.234375 155.269531 C 242.234375 155.269531 232.074219 165.878906 222.023438 166.167969 Z M 222.023438 166.167969 " fill-opacity="1" fill-rule="nonzero"/><path fill="#231f20" d="M 222.007812 166.167969 L 225.257812 170.988281 C 224.382812 169.308594 223.308594 167.683594 222.007812 166.167969 Z M 222.007812 166.167969 " fill-opacity="1" fill-rule="nonzero"/><path fill="#404040" d="M 190.972656 199.300781 C 190.972656 199.300781 193.328125 199.554688 196.804688 200.476562 C 202.925781 197.8125 210.421875 198.429688 216.625 201.046875 C 216.625 201.046875 210.921875 194.070312 199.207031 194.386719 C 199.207031 194.386719 204.425781 188.839844 216.617188 192.640625 C 216.382812 192.476562 207.484375 185.125 199.996094 185.90625 C 199.996094 185.90625 211.632812 181.785156 221.367188 185.03125 C 221.082031 184.796875 209.757812 175.753906 193.738281 179.839844 C 190.191406 183.238281 188.246094 188.707031 190.972656 199.300781 Z M 190.972656 199.300781 " fill-opacity="1" fill-rule="nonzero"/><path fill="#404040" d="M 199.839844 108.066406 C 217.425781 101.234375 231.980469 107.402344 239.117188 111.707031 C 235.882812 108.554688 231.394531 105.453125 225.171875 103.074219 L 232.773438 99.109375 C 232.773438 99.109375 231.738281 98.195312 229.816406 97.074219 C 209.195312 95.589844 199.839844 108.066406 199.839844 108.066406 Z M 199.839844 108.066406 " fill-opacity="1" fill-rule="nonzero"/><path fill="#d49b35" d="M 225.964844 133.152344 C 225.964844 133.152344 228.339844 138.53125 222.878906 141.460938 C 217.414062 144.390625 212.964844 141.773438 212.964844 141.773438 L 221.394531 133.867188 L 218.425781 138.566406 Z M 225.964844 133.152344 " fill-opacity="1" fill-rule="nonzero"/><path fill="#6d6c6c" d="M 186.222656 32.445312 L 199.011719 42.554688 C 193.460938 47.613281 187.910156 65.421875 186.222656 71.179688 L 186.222656 90.867188 C 210.925781 72.160156 237.050781 85.316406 237.050781 85.316406 C 240.214844 68.351562 248.222656 55.988281 248.222656 55.988281 L 225.335938 46.632812 C 228.816406 76.914062 199.207031 70.414062 199.207031 70.414062 C 196.199219 56.304688 210.292969 38.546875 210.292969 38.546875 L 186.222656 23.011719 Z M 232.378906 56.941406 L 239.113281 60.507812 L 233.683594 75.488281 C 233.683594 75.488281 230.003906 71.445312 232.378906 56.941406 Z M 232.378906 56.941406 " fill-opacity="1" fill-rule="nonzero"/><path fill="#404040" d="M 169.796875 238.367188 C 167.003906 242.996094 165.667969 247.597656 165.683594 253.003906 C 163.765625 250.738281 162.070312 248.359375 160.578125 245.851562 C 162.855469 242.832031 165.890625 239.933594 169.796875 238.367188 Z M 169.796875 238.367188 " fill-opacity="1" fill-rule="nonzero"/><path fill="#404040" d="M 174.84375 217.410156 C 174.84375 217.410156 171.550781 221.730469 164.417969 227.886719 C 163.359375 228.800781 162.214844 229.757812 160.984375 230.742188 C 159.855469 231.644531 158.65625 232.578125 157.382812 233.53125 C 159.132812 230.183594 160.433594 226.601562 161.25 222.914062 C 165.3125 221.394531 174.84375 217.410156 174.84375 217.410156 Z M 174.84375 217.410156 " fill-opacity="1" fill-rule="nonzero"/><path fill="#404040" d="M 204.355469 238.367188 C 207.144531 242.996094 208.480469 247.597656 208.46875 253.003906 C 210.386719 250.738281 212.078125 248.359375 213.570312 245.851562 C 211.296875 242.832031 208.257812 239.933594 204.355469 238.367188 Z M 204.355469 238.367188 " fill-opacity="1" fill-rule="nonzero"/><path fill="#404040" d="M 199.308594 217.410156 C 199.308594 217.410156 202.601562 221.730469 209.734375 227.886719 C 210.792969 228.800781 211.933594 229.757812 213.164062 230.742188 C 214.292969 231.644531 215.492188 232.578125 216.765625 233.53125 C 215.019531 230.183594 213.71875 226.601562 212.902344 222.914062 C 208.839844 221.394531 199.308594 217.410156 199.308594 217.410156 Z M 199.308594 217.410156 " fill-opacity="1" fill-rule="nonzero"/><g fill="#bf2928" fill-opacity="1"><g transform="translate(8.756873, 326.559354)"><g><path d="M 22.90625 -28.417969 C 21.640625 -28.101562 20.601562 -28.054688 18.296875 -28.054688 L 8.042969 -28.054688 C 5.738281 -28.054688 4.699219 -28.101562 3.433594 -28.417969 L 2.257812 -28.417969 L 0.675781 -22.273438 L 1.941406 -22.273438 C 3.660156 -25.796875 4.425781 -26.472656 6.640625 -26.472656 L 9.714844 -26.472656 L 9.714844 -3.523438 C 9.714844 -1.941406 8.855469 -1.445312 5.964844 -1.265625 L 5.964844 0 C 10.300781 -0.136719 14.410156 -0.136719 18.792969 0 L 18.792969 -1.265625 C 15.902344 -1.445312 15.042969 -1.941406 15.042969 -3.523438 L 15.042969 -26.472656 L 18.929688 -26.472656 C 20.691406 -26.472656 21.59375 -25.570312 21.1875 -22.273438 L 22.453125 -22.273438 L 24.078125 -28.417969 Z M 22.90625 -28.417969 "/></g></g></g><g fill="#bf2928" fill-opacity="1"><g transform="translate(33.509566, 326.559354)"><g><path d="M 29.046875 -26.789062 L 29.046875 -28.054688 C 25.164062 -27.917969 21.050781 -27.917969 17.167969 -28.054688 L 17.167969 -26.789062 C 19.605469 -26.609375 20.464844 -26.113281 20.464844 -24.53125 L 20.464844 -14.816406 L 9.757812 -14.816406 L 9.757812 -24.53125 C 9.757812 -26.113281 10.617188 -26.609375 13.011719 -26.789062 L 13.011719 -28.054688 C 9.125 -27.917969 5.015625 -27.917969 1.128906 -28.054688 L 1.128906 -26.789062 C 3.570312 -26.609375 4.425781 -26.113281 4.425781 -24.53125 L 4.425781 -3.523438 C 4.425781 -1.941406 3.570312 -1.445312 1.128906 -1.265625 L 1.128906 0 C 5.015625 -0.136719 9.125 -0.136719 13.011719 0 L 13.011719 -1.265625 C 10.617188 -1.445312 9.757812 -1.941406 9.757812 -3.523438 L 9.757812 -13.28125 L 20.464844 -13.28125 L 20.464844 -3.523438 C 20.464844 -1.941406 19.605469 -1.445312 17.167969 -1.265625 L 17.167969 0 C 21.050781 -0.136719 25.164062 -0.136719 29.046875 0 L 29.046875 -1.265625 C 26.652344 -1.445312 25.796875 -1.941406 25.796875 -3.523438 L 25.796875 -24.53125 C 25.796875 -26.113281 26.652344 -26.609375 29.046875 -26.789062 Z M 29.046875 -26.789062 "/></g></g></g><g fill="#bf2928" fill-opacity="1"><g transform="translate(63.682548, 326.559354)"><g><path d="M 21.277344 -7.410156 L 19.695312 -4.425781 C 18.523438 -2.304688 17.167969 -1.492188 13.777344 -1.492188 L 11.292969 -1.492188 C 9.9375 -1.492188 9.667969 -1.941406 9.667969 -3.523438 L 9.667969 -13.644531 L 15.042969 -13.644531 C 17.300781 -13.644531 17.890625 -12.515625 18.386719 -10.660156 L 19.515625 -10.660156 C 19.289062 -13.238281 19.289062 -15.585938 19.515625 -18.117188 L 18.386719 -18.117188 C 17.890625 -16.261719 17.300781 -15.179688 15.042969 -15.179688 L 9.667969 -15.179688 L 9.667969 -25.570312 C 9.667969 -26.292969 9.9375 -26.652344 10.660156 -26.652344 L 14.5 -26.652344 C 17.617188 -26.652344 18.972656 -25.660156 20.148438 -23.128906 L 20.601562 -22.136719 L 21.820312 -22.136719 L 21.144531 -27.242188 C 21.050781 -27.917969 20.960938 -28.054688 20.375 -28.054688 L 1.128906 -28.054688 L 1.128906 -26.789062 C 3.570312 -26.609375 4.335938 -26.292969 4.335938 -24.984375 L 4.335938 -3.523438 C 4.335938 -1.941406 3.570312 -1.445312 1.128906 -1.265625 L 1.128906 0 C 7.90625 -0.136719 14.140625 -0.136719 21.1875 0 C 21.324219 -2.441406 21.683594 -4.789062 22.589844 -7.410156 Z M 21.277344 -7.410156 "/></g></g></g><g fill="#bf2928" fill-opacity="1"><g transform="translate(87.622188, 326.559354)"><g/></g></g><g fill="#bf2928" fill-opacity="1"><g transform="translate(97.559394, 326.559354)"><g><path d="M 21.367188 -7.410156 L 19.789062 -4.425781 C 18.613281 -2.304688 17.257812 -1.492188 13.871094 -1.492188 L 11.382812 -1.492188 C 10.027344 -1.492188 9.757812 -1.941406 9.757812 -3.523438 L 9.757812 -24.53125 C 9.757812 -26.113281 10.617188 -26.609375 13.011719 -26.789062 L 13.011719 -28.054688 C 9.125 -27.917969 5.015625 -27.917969 1.128906 -28.054688 L 1.128906 -26.789062 C 3.570312 -26.609375 4.425781 -26.113281 4.425781 -24.53125 L 4.425781 -3.523438 C 4.425781 -1.941406 3.660156 -1.445312 1.21875 -1.265625 L 1.21875 0 C 7.996094 -0.136719 14.230469 -0.136719 21.277344 0 C 21.414062 -2.441406 21.773438 -4.789062 22.679688 -7.410156 Z M 21.367188 -7.410156 "/></g></g></g><g fill="#bf2928" fill-opacity="1"><g transform="translate(121.137686, 326.559354)"><g><path d="M 9.757812 -3.523438 L 9.757812 -24.53125 C 9.757812 -26.113281 10.617188 -26.609375 13.011719 -26.789062 L 13.011719 -28.054688 C 9.125 -27.917969 5.015625 -27.917969 1.128906 -28.054688 L 1.128906 -26.789062 C 3.570312 -26.609375 4.425781 -26.113281 4.425781 -24.53125 L 4.425781 -3.523438 C 4.425781 -1.941406 3.570312 -1.445312 1.128906 -1.265625 L 1.128906 0 C 5.015625 -0.136719 9.125 -0.136719 13.011719 0 L 13.011719 -1.265625 C 10.617188 -1.445312 9.757812 -1.941406 9.757812 -3.523438 Z M 9.757812 -3.523438 "/></g></g></g><g fill="#bf2928" fill-opacity="1"><g transform="translate(135.275628, 326.559354)"><g><path d="M 14.546875 -28.777344 C 6.957031 -28.777344 1.582031 -22.589844 1.582031 -14.183594 C 1.582031 -5.511719 7.046875 0.632812 14.683594 0.632812 C 22.273438 0.632812 27.648438 -5.601562 27.648438 -13.960938 C 27.648438 -22.632812 22.183594 -28.777344 14.546875 -28.777344 Z M 15.269531 -0.949219 C 10.570312 -0.949219 7.226562 -7.183594 7.226562 -15.449219 C 7.226562 -23.898438 10.34375 -27.195312 13.824219 -27.195312 C 18.65625 -27.195312 22 -21.007812 22 -12.738281 C 22 -4.292969 18.882812 -0.949219 15.269531 -0.949219 Z M 15.269531 -0.949219 "/></g></g></g><g fill="#bf2928" fill-opacity="1"><g transform="translate(164.500061, 326.559354)"><g><path d="M 17.617188 -28.054688 L 17.617188 -26.789062 C 20.554688 -26.5625 22.183594 -26.203125 22.183594 -24.351562 L 22.183594 -9.488281 L 9.894531 -28.054688 C 7.003906 -27.917969 4.109375 -27.917969 1.175781 -28.054688 L 1.175781 -26.789062 C 3.613281 -26.609375 4.96875 -25.660156 4.96875 -23.898438 L 4.96875 -3.75 C 4.96875 -1.851562 3.386719 -1.492188 0.675781 -1.265625 L 0.675781 0 C 4.066406 -0.136719 7.726562 -0.136719 11.339844 0 L 11.339844 -1.265625 C 8.449219 -1.492188 6.777344 -1.851562 6.777344 -3.75 L 6.777344 -23.355469 L 22.40625 0 L 23.988281 0 L 23.988281 -24.351562 C 23.988281 -26.203125 25.570312 -26.5625 28.324219 -26.789062 L 28.324219 -28.054688 C 24.9375 -27.917969 21.277344 -27.917969 17.617188 -28.054688 Z M 17.617188 -28.054688 "/></g></g></g><g fill="#bf2928" fill-opacity="1"><g transform="translate(193.498655, 326.559354)"><g><path d="M 2.890625 -19.199219 L 1.625 -26.382812 C 1.402344 -27.875 2.53125 -28.777344 3.75 -28.777344 C 4.925781 -28.777344 6.054688 -27.875 5.78125 -26.382812 L 4.5625 -19.199219 C 4.519531 -18.839844 4.292969 -18.433594 3.75 -18.433594 C 3.207031 -18.433594 2.9375 -18.839844 2.890625 -19.199219 Z M 2.890625 -19.199219 "/></g></g></g><g fill="#bf2928" fill-opacity="1"><g transform="translate(200.951563, 326.559354)"><g><path d="M 15.632812 -5.691406 C 15.632812 -2.9375 13.6875 -1.128906 10.527344 -1.128906 C 7.183594 -1.128906 4.109375 -3.117188 2.574219 -6.597656 L 1.128906 -6.597656 L 1.535156 0 L 3.070312 0 C 3.253906 -0.585938 3.75 -1.21875 4.609375 -1.21875 C 6.054688 -1.21875 7.769531 0.585938 11.339844 0.585938 C 15.765625 0.585938 20.734375 -2.078125 20.734375 -7.5 C 20.734375 -13.28125 15.042969 -15.40625 11.476562 -17.078125 C 8.085938 -18.703125 6.097656 -20.285156 6.097656 -22.949219 C 6.097656 -25.390625 7.816406 -27.152344 10.753906 -27.152344 C 13.054688 -27.152344 15.40625 -26.023438 17.210938 -22.183594 L 18.476562 -22.183594 L 18.160156 -28.417969 L 16.671875 -28.417969 C 16.488281 -27.828125 16.128906 -27.738281 15.632812 -27.738281 C 14.546875 -27.738281 13.238281 -28.777344 10.121094 -28.777344 C 4.832031 -28.777344 1.445312 -25.796875 1.445312 -21.324219 C 1.445312 -16.714844 5.148438 -14.183594 9.398438 -12.199219 C 13.238281 -10.390625 15.632812 -8.765625 15.632812 -5.691406 Z M 15.632812 -5.691406 "/></g></g></g><g fill="#bf2928" fill-opacity="1"><g transform="translate(222.813432, 326.559354)"><g/></g></g><g fill="#bf2928" fill-opacity="1"><g transform="translate(232.750638, 326.559354)"><g><path d="M 15.632812 -5.691406 C 15.632812 -2.9375 13.6875 -1.128906 10.527344 -1.128906 C 7.183594 -1.128906 4.109375 -3.117188 2.574219 -6.597656 L 1.128906 -6.597656 L 1.535156 0 L 3.070312 0 C 3.253906 -0.585938 3.75 -1.21875 4.609375 -1.21875 C 6.054688 -1.21875 7.769531 0.585938 11.339844 0.585938 C 15.765625 0.585938 20.734375 -2.078125 20.734375 -7.5 C 20.734375 -13.28125 15.042969 -15.40625 11.476562 -17.078125 C 8.085938 -18.703125 6.097656 -20.285156 6.097656 -22.949219 C 6.097656 -25.390625 7.816406 -27.152344 10.753906 -27.152344 C 13.054688 -27.152344 15.40625 -26.023438 17.210938 -22.183594 L 18.476562 -22.183594 L 18.160156 -28.417969 L 16.671875 -28.417969 C 16.488281 -27.828125 16.128906 -27.738281 15.632812 -27.738281 C 14.546875 -27.738281 13.238281 -28.777344 10.121094 -28.777344 C 4.832031 -28.777344 1.445312 -25.796875 1.445312 -21.324219 C 1.445312 -16.714844 5.148438 -14.183594 9.398438 -12.199219 C 13.238281 -10.390625 15.632812 -8.765625 15.632812 -5.691406 Z M 15.632812 -5.691406 "/></g></g></g><g fill="#bf2928" fill-opacity="1"><g transform="translate(254.612492, 326.559354)"><g><path d="M 29.046875 -26.789062 L 29.046875 -28.054688 C 25.164062 -27.917969 21.050781 -27.917969 17.167969 -28.054688 L 17.167969 -26.789062 C 19.605469 -26.609375 20.464844 -26.113281 20.464844 -24.53125 L 20.464844 -14.816406 L 9.757812 -14.816406 L 9.757812 -24.53125 C 9.757812 -26.113281 10.617188 -26.609375 13.011719 -26.789062 L 13.011719 -28.054688 C 9.125 -27.917969 5.015625 -27.917969 1.128906 -28.054688 L 1.128906 -26.789062 C 3.570312 -26.609375 4.425781 -26.113281 4.425781 -24.53125 L 4.425781 -3.523438 C 4.425781 -1.941406 3.570312 -1.445312 1.128906 -1.265625 L 1.128906 0 C 5.015625 -0.136719 9.125 -0.136719 13.011719 0 L 13.011719 -1.265625 C 10.617188 -1.445312 9.757812 -1.941406 9.757812 -3.523438 L 9.757812 -13.28125 L 20.464844 -13.28125 L 20.464844 -3.523438 C 20.464844 -1.941406 19.605469 -1.445312 17.167969 -1.265625 L 17.167969 0 C 21.050781 -0.136719 25.164062 -0.136719 29.046875 0 L 29.046875 -1.265625 C 26.652344 -1.445312 25.796875 -1.941406 25.796875 -3.523438 L 25.796875 -24.53125 C 25.796875 -26.113281 26.652344 -26.609375 29.046875 -26.789062 Z M 29.046875 -26.789062 "/></g></g></g><g fill="#bf2928" fill-opacity="1"><g transform="translate(284.785474, 326.559354)"><g><path d="M 25.253906 -4.878906 L 16.625 -28.28125 L 13.507812 -28.28125 L 5.285156 -4.472656 C 4.5625 -2.394531 3.433594 -1.492188 0.453125 -1.265625 L 0.453125 0 C 3.75 -0.136719 7.636719 -0.136719 10.976562 0 L 10.976562 -1.265625 C 8.042969 -1.492188 6.28125 -2.078125 6.867188 -3.792969 L 8.675781 -9.171875 L 18.160156 -9.171875 L 20.058594 -3.976562 C 20.734375 -2.167969 20.375 -1.492188 17.347656 -1.265625 L 17.347656 0 C 21.414062 -0.136719 25.613281 -0.136719 29.679688 0 L 29.679688 -1.265625 C 26.519531 -1.492188 26.113281 -2.574219 25.253906 -4.878906 Z M 9.171875 -10.660156 L 13.191406 -22.769531 L 17.617188 -10.660156 Z M 9.171875 -10.660156 "/></g></g></g><g fill="#bf2928" fill-opacity="1"><g transform="translate(314.913276, 326.559354)"><g><path d="M 19.695312 -6.867188 L 15.902344 -12.199219 C 22 -13.960938 24.394531 -16.804688 24.394531 -20.601562 C 24.394531 -24.53125 21.910156 -28.054688 12.378906 -28.054688 C 9.757812 -28.054688 5.464844 -27.875 1.308594 -28.054688 L 1.308594 -26.789062 C 3.660156 -26.609375 4.335938 -25.886719 4.335938 -24.574219 L 4.335938 -3.523438 C 4.335938 -1.941406 3.570312 -1.445312 1.128906 -1.265625 L 1.128906 0 C 5.015625 -0.136719 8.945312 -0.136719 12.832031 0 L 12.832031 -1.265625 C 10.4375 -1.445312 9.667969 -1.941406 9.667969 -3.523438 L 9.667969 -10.976562 L 10.796875 -11.160156 C 10.933594 -11.160156 11.066406 -11.203125 11.160156 -11.203125 L 15.269531 -5.375 C 18.566406 -0.632812 22.183594 0.40625 25.75 0.363281 L 26.699219 -1.085938 C 24.667969 -1.265625 22.136719 -3.386719 19.695312 -6.867188 Z M 9.667969 -26.652344 L 13.144531 -26.652344 C 17.347656 -26.652344 19.15625 -23.988281 19.15625 -20.375 C 19.15625 -16.445312 17.167969 -13.460938 10.796875 -12.648438 L 9.667969 -12.515625 Z M 9.667969 -26.652344 "/></g></g></g><g fill="#bf2928" fill-opacity="1"><g transform="translate(342.285777, 326.559354)"><g><path d="M 21.277344 -7.410156 L 19.695312 -4.425781 C 18.523438 -2.304688 17.167969 -1.492188 13.777344 -1.492188 L 11.292969 -1.492188 C 9.9375 -1.492188 9.667969 -1.941406 9.667969 -3.523438 L 9.667969 -13.644531 L 15.042969 -13.644531 C 17.300781 -13.644531 17.890625 -12.515625 18.386719 -10.660156 L 19.515625 -10.660156 C 19.289062 -13.238281 19.289062 -15.585938 19.515625 -18.117188 L 18.386719 -18.117188 C 17.890625 -16.261719 17.300781 -15.179688 15.042969 -15.179688 L 9.667969 -15.179688 L 9.667969 -25.570312 C 9.667969 -26.292969 9.9375 -26.652344 10.660156 -26.652344 L 14.5 -26.652344 C 17.617188 -26.652344 18.972656 -25.660156 20.148438 -23.128906 L 20.601562 -22.136719 L 21.820312 -22.136719 L 21.144531 -27.242188 C 21.050781 -27.917969 20.960938 -28.054688 20.375 -28.054688 L 1.128906 -28.054688 L 1.128906 -26.789062 C 3.570312 -26.609375 4.335938 -26.292969 4.335938 -24.984375 L 4.335938 -3.523438 C 4.335938 -1.941406 3.570312 -1.445312 1.128906 -1.265625 L 1.128906 0 C 7.90625 -0.136719 14.140625 -0.136719 21.1875 0 C 21.324219 -2.441406 21.683594 -4.789062 22.589844 -7.410156 Z M 21.277344 -7.410156 "/></g></g></g></svg>