<svg xmlns="http://www.w3.org/2000/svg" xmlns:xlink="http://www.w3.org/1999/xlink" width="500" zoomAndPan="magnify" viewBox="0 0 375 374.999991" height="500" preserveAspectRatio="xMidYMid meet" version="1.0"><defs><g/><clipPath id="ec8eaf14e5"><path d="M 169 186 L 206 186 L 206 220.539062 L 169 220.539062 Z M 169 186 " clip-rule="nonzero"/></clipPath><clipPath id="f5a48b76a1"><path d="M 147.148438 154 L 166 154 L 166 168 L 147.148438 168 Z M 147.148438 154 " clip-rule="nonzero"/></clipPath><clipPath id="584f899407"><path d="M 149 75.789062 L 187 75.789062 L 187 117 L 149 117 Z M 149 75.789062 " clip-rule="nonzero"/></clipPath><clipPath id="2e27c8dd44"><path d="M 186 75.789062 L 225 75.789062 L 225 117 L 186 117 Z M 186 75.789062 " clip-rule="nonzero"/></clipPath></defs><path fill="#6d6c6c" d="M 199.128906 164.886719 C 196.90625 166.375 193.679688 167.152344 191.480469 169.25 C 189.351562 171.277344 188.183594 174.53125 189.820312 180.84375 C 189.820312 180.84375 191.234375 180.996094 193.320312 181.542969 C 195.089844 182.007812 197.34375 182.757812 199.636719 183.9375 C 201.175781 184.730469 202.730469 185.722656 204.164062 186.953125 L 212.335938 178.484375 C 212.335938 178.484375 213.835938 170.527344 210.390625 163.980469 C 209.863281 162.980469 209.222656 162.011719 208.441406 161.109375 L 208.449219 161.109375 C 208.65625 161.109375 212.527344 161.199219 215.945312 167.71875 C 215.945312 167.71875 220.316406 158.9375 226.585938 157.710938 C 226.585938 157.710938 226.675781 157.421875 226.792969 156.9375 C 227.25 155.078125 228.144531 150.320312 226.109375 147.699219 C 225.246094 146.585938 224.609375 145.347656 224.167969 144.089844 C 223.300781 141.609375 223.199219 139.066406 223.640625 137.3125 C 223.640625 137.3125 223.5 136.191406 222.796875 134.53125 C 222.105469 132.910156 220.878906 130.769531 218.707031 128.667969 C 216.765625 126.792969 214.074219 124.945312 210.339844 123.527344 L 214.898438 121.167969 C 214.898438 121.167969 214.28125 120.621094 213.125 119.953125 C 211.316406 118.914062 208.195312 117.574219 204.085938 117.574219 C 199.472656 117.574219 193.613281 119.261719 186.96875 124.945312 L 186.96875 161.296875 C 192.574219 160.640625 198.464844 157.710938 198.464844 157.710938 C 198.464844 157.710938 203.5 161.957031 199.128906 164.886719 Z M 191.683594 141.679688 C 191.671875 141.601562 191.660156 141.523438 191.648438 141.441406 C 191.648438 141.441406 199.851562 146.359375 205.984375 139.738281 C 207.285156 138.339844 208.980469 137.355469 210.867188 137.039062 C 213.90625 136.523438 217.992188 137.097656 219.722656 143.011719 L 215.589844 143.011719 C 215.589844 143.011719 212.453125 151.855469 205.257812 151.285156 L 206.042969 155.890625 C 206.042969 155.890625 201.054688 152.914062 199.984375 147.816406 C 199.984375 147.816406 192.753906 148.09375 191.683594 141.679688 Z M 191.683594 141.679688 " fill-opacity="1" fill-rule="nonzero"/><g clip-path="url(#ec8eaf14e5)"><path fill="#6d6c6c" d="M 200.460938 197.640625 C 201.113281 199.941406 204.230469 202.394531 205.484375 204.429688 C 204.175781 207.5 202.484375 210.289062 200.316406 212.832031 C 200.324219 209.613281 199.523438 206.871094 197.847656 204.113281 C 197.761719 207.265625 196.695312 210.378906 194.835938 212.929688 C 193.785156 214.371094 192.496094 215.617188 191.21875 216.859375 C 189.972656 218.070312 188.726562 219.28125 187.480469 220.492188 C 186.234375 219.28125 184.988281 218.070312 183.742188 216.859375 C 182.464844 215.617188 181.179688 214.371094 180.128906 212.929688 C 178.265625 210.378906 177.199219 207.265625 177.113281 204.113281 C 175.4375 206.871094 174.636719 209.613281 174.644531 212.832031 C 173.496094 211.484375 172.480469 210.066406 171.582031 208.574219 C 170.789062 207.253906 170.089844 205.875 169.476562 204.429688 C 170.691406 202.457031 173.140625 200.105469 173.886719 197.871094 C 173.910156 197.800781 173.933594 197.726562 173.953125 197.652344 L 171.828125 199.574219 L 169.359375 201.800781 C 169.464844 201.613281 169.566406 201.421875 169.664062 201.234375 C 170.714844 199.238281 171.496094 197.105469 171.984375 194.910156 C 172.199219 193.957031 172.355469 192.988281 172.457031 192.019531 C 174.695312 190.445312 177.710938 189.066406 180.769531 188.042969 C 185.125 186.589844 189.835938 186.589844 194.1875 188.042969 C 197.25 189.066406 200.265625 190.445312 202.503906 192.019531 C 202.859375 195.441406 203.917969 198.789062 205.601562 201.796875 Z M 200.460938 197.640625 " fill-opacity="1" fill-rule="nonzero"/></g><path fill="#404040" d="M 182.257812 141.679688 C 182.269531 141.601562 182.28125 141.523438 182.292969 141.441406 C 182.292969 141.441406 174.089844 146.359375 167.953125 139.738281 C 166.65625 138.339844 164.960938 137.355469 163.074219 137.039062 C 160.035156 136.523438 155.949219 137.097656 154.21875 143.011719 L 158.351562 143.011719 C 155.019531 143.105469 152.066406 143.578125 149.769531 144.085938 C 150.640625 141.609375 150.742188 139.066406 150.300781 137.3125 C 150.300781 137.3125 150.441406 136.1875 151.144531 134.53125 C 160.921875 127.296875 167.820312 134.667969 168.257812 134.667969 C 180.761719 134.667969 183.171875 138.632812 183.171875 138.632812 C 182.941406 139.941406 182.605469 140.933594 182.257812 141.679688 Z M 182.257812 141.679688 " fill-opacity="1" fill-rule="nonzero"/><g clip-path="url(#f5a48b76a1)"><path fill="#404040" d="M 165.488281 161.109375 C 165.28125 161.109375 161.414062 161.195312 157.996094 167.71875 C 157.996094 167.71875 153.625 158.9375 147.355469 157.707031 C 147.355469 157.707031 147.261719 157.421875 147.144531 156.9375 C 148.292969 155.542969 150.210938 154.316406 153.363281 154.617188 C 153.363281 154.617188 159.460938 160.933594 165.488281 161.109375 Z M 165.488281 161.109375 " fill-opacity="1" fill-rule="nonzero"/></g><path fill="#231f20" d="M 165.5 161.109375 L 163.550781 163.980469 C 164.074219 162.980469 164.71875 162.011719 165.5 161.109375 Z M 165.5 161.109375 " fill-opacity="1" fill-rule="nonzero"/><path fill="#404040" d="M 184.121094 180.84375 C 184.121094 180.84375 182.707031 180.996094 180.621094 181.542969 C 176.949219 179.957031 172.449219 180.324219 168.730469 181.882812 C 168.730469 181.882812 172.148438 177.730469 179.179688 177.917969 C 179.179688 177.917969 176.046875 174.613281 168.734375 176.875 C 168.875 176.777344 174.210938 172.402344 178.707031 172.867188 C 178.707031 172.867188 171.722656 170.410156 165.882812 172.34375 C 166.054688 172.207031 172.847656 166.816406 182.460938 169.25 C 184.589844 171.277344 185.753906 174.53125 184.121094 180.84375 Z M 184.121094 180.84375 " fill-opacity="1" fill-rule="nonzero"/><path fill="#404040" d="M 178.800781 126.5 C 168.25 122.429688 159.515625 126.105469 155.234375 128.667969 C 157.175781 126.789062 159.867188 124.945312 163.601562 123.523438 L 159.039062 121.164062 C 159.039062 121.164062 159.660156 120.617188 160.816406 119.953125 C 173.1875 119.066406 178.800781 126.5 178.800781 126.5 Z M 178.800781 126.5 " fill-opacity="1" fill-rule="nonzero"/><path fill="#d49b35" d="M 163.125 141.441406 C 163.125 141.441406 161.699219 144.648438 164.976562 146.390625 C 168.253906 148.136719 170.925781 146.578125 170.925781 146.578125 L 165.867188 141.867188 L 167.648438 144.667969 Z M 163.125 141.441406 " fill-opacity="1" fill-rule="nonzero"/><g clip-path="url(#584f899407)"><path fill="#404040" d="M 186.96875 75.835938 L 172.53125 85.089844 C 172.53125 85.089844 180.984375 95.667969 179.179688 104.070312 C 179.179688 104.070312 161.414062 107.945312 163.503906 89.90625 L 149.769531 95.476562 C 149.769531 95.476562 154.574219 102.84375 156.472656 112.949219 C 156.472656 112.949219 172.148438 105.109375 186.96875 116.253906 L 186.96875 104.527344 C 185.957031 101.097656 182.628906 90.492188 179.296875 87.476562 L 186.96875 81.457031 Z M 158.492188 107.09375 L 155.234375 98.167969 L 159.277344 96.046875 C 160.703125 104.6875 158.492188 107.09375 158.492188 107.09375 Z M 158.492188 107.09375 " fill-opacity="1" fill-rule="nonzero"/></g><path fill="#404040" d="M 191.683594 141.679688 C 191.671875 141.601562 191.660156 141.523438 191.648438 141.441406 C 191.648438 141.441406 199.851562 146.359375 205.984375 139.738281 C 207.285156 138.339844 208.980469 137.355469 210.867188 137.039062 C 213.90625 136.523438 217.992188 137.097656 219.722656 143.011719 L 215.589844 143.011719 C 218.921875 143.105469 221.875 143.578125 224.167969 144.085938 C 223.300781 141.609375 223.199219 139.066406 223.640625 137.3125 C 223.640625 137.3125 223.5 136.1875 222.796875 134.53125 C 213.019531 127.296875 206.121094 134.667969 205.683594 134.667969 C 193.179688 134.667969 190.769531 138.632812 190.769531 138.632812 C 191 139.941406 191.332031 140.933594 191.683594 141.679688 Z M 191.683594 141.679688 " fill-opacity="1" fill-rule="nonzero"/><path fill="#404040" d="M 208.449219 161.109375 C 208.65625 161.109375 212.527344 161.195312 215.945312 167.71875 C 215.945312 167.71875 220.316406 158.9375 226.585938 157.707031 C 226.585938 157.707031 226.675781 157.421875 226.792969 156.9375 C 225.648438 155.542969 223.730469 154.316406 220.578125 154.617188 C 220.578125 154.617188 214.480469 160.933594 208.449219 161.109375 Z M 208.449219 161.109375 " fill-opacity="1" fill-rule="nonzero"/><path fill="#231f20" d="M 208.441406 161.109375 L 210.390625 163.980469 C 209.863281 162.980469 209.222656 162.011719 208.441406 161.109375 Z M 208.441406 161.109375 " fill-opacity="1" fill-rule="nonzero"/><path fill="#404040" d="M 189.820312 180.84375 C 189.820312 180.84375 191.234375 180.996094 193.320312 181.542969 C 196.992188 179.957031 201.488281 180.324219 205.210938 181.882812 C 205.210938 181.882812 201.789062 177.730469 194.757812 177.917969 C 194.757812 177.917969 197.890625 174.613281 205.207031 176.875 C 205.066406 176.777344 199.726562 172.402344 195.234375 172.867188 C 195.234375 172.867188 202.214844 170.410156 208.054688 172.34375 C 207.882812 172.207031 201.089844 166.816406 191.480469 169.25 C 189.351562 171.277344 188.183594 174.53125 189.820312 180.84375 Z M 189.820312 180.84375 " fill-opacity="1" fill-rule="nonzero"/><path fill="#404040" d="M 195.140625 126.5 C 205.691406 122.429688 214.421875 126.105469 218.707031 128.667969 C 216.765625 126.789062 214.074219 124.945312 210.339844 123.523438 L 214.898438 121.164062 C 214.898438 121.164062 214.28125 120.617188 213.125 119.953125 C 200.753906 119.066406 195.140625 126.5 195.140625 126.5 Z M 195.140625 126.5 " fill-opacity="1" fill-rule="nonzero"/><path fill="#d49b35" d="M 210.816406 141.441406 C 210.816406 141.441406 212.242188 144.648438 208.964844 146.390625 C 205.683594 148.136719 203.015625 146.578125 203.015625 146.578125 L 208.074219 141.867188 L 206.292969 144.667969 Z M 210.816406 141.441406 " fill-opacity="1" fill-rule="nonzero"/><g clip-path="url(#2e27c8dd44)"><path fill="#6d6c6c" d="M 186.96875 81.453125 L 194.640625 87.476562 C 191.3125 90.488281 187.980469 101.097656 186.96875 104.527344 L 186.96875 116.253906 C 201.789062 105.109375 217.464844 112.949219 217.464844 112.949219 C 219.367188 102.84375 224.167969 95.476562 224.167969 95.476562 L 210.4375 89.90625 C 212.527344 107.941406 194.761719 104.070312 194.761719 104.070312 C 192.957031 95.667969 201.410156 85.089844 201.410156 85.089844 L 186.96875 75.835938 Z M 214.664062 96.046875 L 218.703125 98.167969 L 215.445312 107.09375 C 215.445312 107.09375 213.238281 104.6875 214.664062 96.046875 Z M 214.664062 96.046875 " fill-opacity="1" fill-rule="nonzero"/></g><path fill="#404040" d="M 177.113281 204.113281 C 175.4375 206.871094 174.636719 209.613281 174.644531 212.832031 C 173.496094 211.484375 172.480469 210.066406 171.582031 208.574219 C 172.949219 206.773438 174.769531 205.046875 177.113281 204.113281 Z M 177.113281 204.113281 " fill-opacity="1" fill-rule="nonzero"/><path fill="#404040" d="M 180.140625 191.632812 C 180.140625 191.632812 178.164062 194.207031 173.886719 197.871094 C 173.25 198.417969 172.566406 198.984375 171.828125 199.574219 C 171.148438 200.113281 170.429688 200.667969 169.664062 201.234375 C 170.714844 199.238281 171.496094 197.105469 171.984375 194.910156 C 174.421875 194.003906 180.140625 191.632812 180.140625 191.632812 Z M 180.140625 191.632812 " fill-opacity="1" fill-rule="nonzero"/><path fill="#404040" d="M 197.847656 204.113281 C 199.523438 206.871094 200.324219 209.613281 200.316406 212.832031 C 201.46875 211.484375 202.484375 210.066406 203.378906 208.574219 C 202.011719 206.773438 200.191406 205.046875 197.847656 204.113281 Z M 197.847656 204.113281 " fill-opacity="1" fill-rule="nonzero"/><path fill="#404040" d="M 194.820312 191.632812 C 194.820312 191.632812 196.796875 194.207031 201.074219 197.871094 C 201.710938 198.417969 202.398438 198.984375 203.136719 199.574219 C 203.8125 200.113281 204.53125 200.667969 205.296875 201.234375 C 204.246094 199.238281 203.464844 197.105469 202.976562 194.910156 C 200.539062 194.003906 194.820312 191.632812 194.820312 191.632812 Z M 194.820312 191.632812 " fill-opacity="1" fill-rule="nonzero"/><g fill="#280909" fill-opacity="1"><g transform="translate(40.078962, 269.737086)"><g><path d="M 18.890625 -23.4375 C 17.847656 -23.175781 16.992188 -23.136719 15.089844 -23.136719 L 6.632812 -23.136719 C 4.730469 -23.136719 3.875 -23.175781 2.832031 -23.4375 L 1.863281 -23.4375 L 0.558594 -18.371094 L 1.601562 -18.371094 C 3.019531 -21.277344 3.652344 -21.835938 5.476562 -21.835938 L 8.011719 -21.835938 L 8.011719 -2.90625 C 8.011719 -1.601562 7.304688 -1.191406 4.917969 -1.042969 L 4.917969 0 C 8.496094 -0.113281 11.886719 -0.113281 15.5 0 L 15.5 -1.042969 C 13.117188 -1.191406 12.40625 -1.601562 12.40625 -2.90625 L 12.40625 -21.835938 L 15.613281 -21.835938 C 17.066406 -21.835938 17.808594 -21.089844 17.476562 -18.371094 L 18.519531 -18.371094 L 19.859375 -23.4375 Z M 18.890625 -23.4375 "/></g></g></g><g fill="#280909" fill-opacity="1"><g transform="translate(60.494111, 269.737086)"><g><path d="M 23.957031 -22.09375 L 23.957031 -23.136719 C 20.753906 -23.027344 17.363281 -23.027344 14.160156 -23.136719 L 14.160156 -22.09375 C 16.171875 -21.945312 16.878906 -21.535156 16.878906 -20.230469 L 16.878906 -12.222656 L 8.046875 -12.222656 L 8.046875 -20.230469 C 8.046875 -21.535156 8.757812 -21.945312 10.730469 -22.09375 L 10.730469 -23.136719 C 7.527344 -23.027344 4.136719 -23.027344 0.929688 -23.136719 L 0.929688 -22.09375 C 2.945312 -21.945312 3.652344 -21.535156 3.652344 -20.230469 L 3.652344 -2.90625 C 3.652344 -1.601562 2.945312 -1.191406 0.929688 -1.042969 L 0.929688 0 C 4.136719 -0.113281 7.527344 -0.113281 10.730469 0 L 10.730469 -1.042969 C 8.757812 -1.191406 8.046875 -1.601562 8.046875 -2.90625 L 8.046875 -10.953125 L 16.878906 -10.953125 L 16.878906 -2.90625 C 16.878906 -1.601562 16.171875 -1.191406 14.160156 -1.042969 L 14.160156 0 C 17.363281 -0.113281 20.753906 -0.113281 23.957031 0 L 23.957031 -1.042969 C 21.984375 -1.191406 21.277344 -1.601562 21.277344 -2.90625 L 21.277344 -20.230469 C 21.277344 -21.535156 21.984375 -21.945312 23.957031 -22.09375 Z M 23.957031 -22.09375 "/></g></g></g><g fill="#280909" fill-opacity="1"><g transform="translate(85.379722, 269.737086)"><g><path d="M 17.550781 -6.109375 L 16.246094 -3.652344 C 15.277344 -1.898438 14.160156 -1.230469 11.363281 -1.230469 L 9.316406 -1.230469 C 8.195312 -1.230469 7.972656 -1.601562 7.972656 -2.90625 L 7.972656 -11.253906 L 12.40625 -11.253906 C 14.269531 -11.253906 14.753906 -10.320312 15.164062 -8.792969 L 16.097656 -8.792969 C 15.910156 -10.917969 15.910156 -12.855469 16.097656 -14.941406 L 15.164062 -14.941406 C 14.753906 -13.414062 14.269531 -12.519531 12.40625 -12.519531 L 7.972656 -12.519531 L 7.972656 -21.089844 C 7.972656 -21.683594 8.195312 -21.984375 8.792969 -21.984375 L 11.960938 -21.984375 C 14.53125 -21.984375 15.648438 -21.164062 16.617188 -19.078125 L 16.992188 -18.257812 L 17.996094 -18.257812 L 17.4375 -22.46875 C 17.363281 -23.027344 17.289062 -23.136719 16.804688 -23.136719 L 0.929688 -23.136719 L 0.929688 -22.09375 C 2.945312 -21.945312 3.578125 -21.683594 3.578125 -20.605469 L 3.578125 -2.90625 C 3.578125 -1.601562 2.945312 -1.191406 0.929688 -1.042969 L 0.929688 0 C 6.519531 -0.113281 11.664062 -0.113281 17.476562 0 C 17.585938 -2.011719 17.886719 -3.949219 18.628906 -6.109375 Z M 17.550781 -6.109375 "/></g></g></g><g fill="#280909" fill-opacity="1"><g transform="translate(105.124292, 269.737086)"><g/></g></g><g fill="#280909" fill-opacity="1"><g transform="translate(113.32015, 269.737086)"><g><path d="M 17.625 -6.109375 L 16.320312 -3.652344 C 15.351562 -1.898438 14.234375 -1.230469 11.4375 -1.230469 L 9.390625 -1.230469 C 8.273438 -1.230469 8.046875 -1.601562 8.046875 -2.90625 L 8.046875 -20.230469 C 8.046875 -21.535156 8.757812 -21.945312 10.730469 -22.09375 L 10.730469 -23.136719 C 7.527344 -23.027344 4.136719 -23.027344 0.929688 -23.136719 L 0.929688 -22.09375 C 2.945312 -21.945312 3.652344 -21.535156 3.652344 -20.230469 L 3.652344 -2.90625 C 3.652344 -1.601562 3.019531 -1.191406 1.007812 -1.042969 L 1.007812 0 C 6.59375 -0.113281 11.738281 -0.113281 17.550781 0 C 17.660156 -2.011719 17.960938 -3.949219 18.703125 -6.109375 Z M 17.625 -6.109375 "/></g></g></g><g fill="#280909" fill-opacity="1"><g transform="translate(132.766693, 269.737086)"><g><path d="M 8.046875 -2.90625 L 8.046875 -20.230469 C 8.046875 -21.535156 8.757812 -21.945312 10.730469 -22.09375 L 10.730469 -23.136719 C 7.527344 -23.027344 4.136719 -23.027344 0.929688 -23.136719 L 0.929688 -22.09375 C 2.945312 -21.945312 3.652344 -21.535156 3.652344 -20.230469 L 3.652344 -2.90625 C 3.652344 -1.601562 2.945312 -1.191406 0.929688 -1.042969 L 0.929688 0 C 4.136719 -0.113281 7.527344 -0.113281 10.730469 0 L 10.730469 -1.042969 C 8.757812 -1.191406 8.046875 -1.601562 8.046875 -2.90625 Z M 8.046875 -2.90625 "/></g></g></g><g fill="#280909" fill-opacity="1"><g transform="translate(144.427169, 269.737086)"><g><path d="M 11.996094 -23.734375 C 5.738281 -23.734375 1.304688 -18.628906 1.304688 -11.699219 C 1.304688 -4.546875 5.8125 0.523438 12.109375 0.523438 C 18.371094 0.523438 22.804688 -4.621094 22.804688 -11.511719 C 22.804688 -18.667969 18.292969 -23.734375 11.996094 -23.734375 Z M 12.59375 -0.78125 C 8.71875 -0.78125 5.960938 -5.925781 5.960938 -12.742188 C 5.960938 -19.710938 8.53125 -22.429688 11.402344 -22.429688 C 15.386719 -22.429688 18.144531 -17.324219 18.144531 -10.507812 C 18.144531 -3.539062 15.574219 -0.78125 12.59375 -0.78125 Z M 12.59375 -0.78125 "/></g></g></g><g fill="#280909" fill-opacity="1"><g transform="translate(168.530451, 269.737086)"><g><path d="M 14.53125 -23.136719 L 14.53125 -22.09375 C 16.953125 -21.910156 18.292969 -21.609375 18.292969 -20.082031 L 18.292969 -7.824219 L 8.160156 -23.136719 C 5.773438 -23.027344 3.390625 -23.027344 0.96875 -23.136719 L 0.96875 -22.09375 C 2.980469 -21.945312 4.097656 -21.164062 4.097656 -19.710938 L 4.097656 -3.09375 C 4.097656 -1.527344 2.792969 -1.230469 0.558594 -1.042969 L 0.558594 0 C 3.351562 -0.113281 6.371094 -0.113281 9.351562 0 L 9.351562 -1.042969 C 6.96875 -1.230469 5.589844 -1.527344 5.589844 -3.09375 L 5.589844 -19.261719 L 18.480469 0 L 19.785156 0 L 19.785156 -20.082031 C 19.785156 -21.609375 21.089844 -21.910156 23.363281 -22.09375 L 23.363281 -23.136719 C 20.566406 -23.027344 17.550781 -23.027344 14.53125 -23.136719 Z M 14.53125 -23.136719 "/></g></g></g><g fill="#280909" fill-opacity="1"><g transform="translate(192.447468, 269.737086)"><g><path d="M 2.382812 -15.835938 L 1.339844 -21.761719 C 1.15625 -22.988281 2.085938 -23.734375 3.09375 -23.734375 C 4.0625 -23.734375 4.992188 -22.988281 4.769531 -21.761719 L 3.761719 -15.835938 C 3.726562 -15.539062 3.539062 -15.203125 3.09375 -15.203125 C 2.644531 -15.203125 2.421875 -15.539062 2.382812 -15.835938 Z M 2.382812 -15.835938 "/></g></g></g><g fill="#280909" fill-opacity="1"><g transform="translate(198.594364, 269.737086)"><g><path d="M 12.890625 -4.695312 C 12.890625 -2.421875 11.289062 -0.929688 8.679688 -0.929688 C 5.925781 -0.929688 3.390625 -2.570312 2.125 -5.441406 L 0.929688 -5.441406 L 1.265625 0 L 2.535156 0 C 2.683594 -0.484375 3.09375 -1.007812 3.800781 -1.007812 C 4.992188 -1.007812 6.410156 0.484375 9.351562 0.484375 C 13.003906 0.484375 17.101562 -1.714844 17.101562 -6.183594 C 17.101562 -10.953125 12.40625 -12.707031 9.464844 -14.085938 C 6.667969 -15.425781 5.03125 -16.730469 5.03125 -18.929688 C 5.03125 -20.941406 6.445312 -22.394531 8.867188 -22.394531 C 10.769531 -22.394531 12.707031 -21.460938 14.195312 -18.292969 L 15.238281 -18.292969 L 14.980469 -23.4375 L 13.75 -23.4375 C 13.601562 -22.953125 13.300781 -22.878906 12.890625 -22.878906 C 11.996094 -22.878906 10.917969 -23.734375 8.347656 -23.734375 C 3.988281 -23.734375 1.191406 -21.277344 1.191406 -17.585938 C 1.191406 -13.785156 4.246094 -11.699219 7.75 -10.058594 C 10.917969 -8.570312 12.890625 -7.226562 12.890625 -4.695312 Z M 12.890625 -4.695312 "/></g></g></g><g fill="#280909" fill-opacity="1"><g transform="translate(216.625262, 269.737086)"><g/></g></g><g fill="#280909" fill-opacity="1"><g transform="translate(224.82112, 269.737086)"><g><path d="M 12.890625 -4.695312 C 12.890625 -2.421875 11.289062 -0.929688 8.679688 -0.929688 C 5.925781 -0.929688 3.390625 -2.570312 2.125 -5.441406 L 0.929688 -5.441406 L 1.265625 0 L 2.535156 0 C 2.683594 -0.484375 3.09375 -1.007812 3.800781 -1.007812 C 4.992188 -1.007812 6.410156 0.484375 9.351562 0.484375 C 13.003906 0.484375 17.101562 -1.714844 17.101562 -6.183594 C 17.101562 -10.953125 12.40625 -12.707031 9.464844 -14.085938 C 6.667969 -15.425781 5.03125 -16.730469 5.03125 -18.929688 C 5.03125 -20.941406 6.445312 -22.394531 8.867188 -22.394531 C 10.769531 -22.394531 12.707031 -21.460938 14.195312 -18.292969 L 15.238281 -18.292969 L 14.980469 -23.4375 L 13.75 -23.4375 C 13.601562 -22.953125 13.300781 -22.878906 12.890625 -22.878906 C 11.996094 -22.878906 10.917969 -23.734375 8.347656 -23.734375 C 3.988281 -23.734375 1.191406 -21.277344 1.191406 -17.585938 C 1.191406 -13.785156 4.246094 -11.699219 7.75 -10.058594 C 10.917969 -8.570312 12.890625 -7.226562 12.890625 -4.695312 Z M 12.890625 -4.695312 "/></g></g></g><g fill="#280909" fill-opacity="1"><g transform="translate(242.852006, 269.737086)"><g><path d="M 23.957031 -22.09375 L 23.957031 -23.136719 C 20.753906 -23.027344 17.363281 -23.027344 14.160156 -23.136719 L 14.160156 -22.09375 C 16.171875 -21.945312 16.878906 -21.535156 16.878906 -20.230469 L 16.878906 -12.222656 L 8.046875 -12.222656 L 8.046875 -20.230469 C 8.046875 -21.535156 8.757812 -21.945312 10.730469 -22.09375 L 10.730469 -23.136719 C 7.527344 -23.027344 4.136719 -23.027344 0.929688 -23.136719 L 0.929688 -22.09375 C 2.945312 -21.945312 3.652344 -21.535156 3.652344 -20.230469 L 3.652344 -2.90625 C 3.652344 -1.601562 2.945312 -1.191406 0.929688 -1.042969 L 0.929688 0 C 4.136719 -0.113281 7.527344 -0.113281 10.730469 0 L 10.730469 -1.042969 C 8.757812 -1.191406 8.046875 -1.601562 8.046875 -2.90625 L 8.046875 -10.953125 L 16.878906 -10.953125 L 16.878906 -2.90625 C 16.878906 -1.601562 16.171875 -1.191406 14.160156 -1.042969 L 14.160156 0 C 17.363281 -0.113281 20.753906 -0.113281 23.957031 0 L 23.957031 -1.042969 C 21.984375 -1.191406 21.277344 -1.601562 21.277344 -2.90625 L 21.277344 -20.230469 C 21.277344 -21.535156 21.984375 -21.945312 23.957031 -22.09375 Z M 23.957031 -22.09375 "/></g></g></g><g fill="#280909" fill-opacity="1"><g transform="translate(267.737617, 269.737086)"><g><path d="M 20.828125 -4.023438 L 13.710938 -23.324219 L 11.140625 -23.324219 L 4.359375 -3.6875 C 3.761719 -1.976562 2.832031 -1.230469 0.371094 -1.042969 L 0.371094 0 C 3.09375 -0.113281 6.296875 -0.113281 9.054688 0 L 9.054688 -1.042969 C 6.632812 -1.230469 5.179688 -1.714844 5.664062 -3.128906 L 7.152344 -7.5625 L 14.980469 -7.5625 L 16.542969 -3.277344 C 17.101562 -1.789062 16.804688 -1.230469 14.308594 -1.042969 L 14.308594 0 C 17.660156 -0.113281 21.125 -0.113281 24.480469 0 L 24.480469 -1.042969 C 21.871094 -1.230469 21.535156 -2.125 20.828125 -4.023438 Z M 7.5625 -8.792969 L 10.878906 -18.777344 L 14.53125 -8.792969 Z M 7.5625 -8.792969 "/></g></g></g><g fill="#280909" fill-opacity="1"><g transform="translate(292.585966, 269.737086)"><g><path d="M 16.246094 -5.664062 L 13.117188 -10.058594 C 18.144531 -11.511719 20.121094 -13.859375 20.121094 -16.992188 C 20.121094 -20.230469 18.070312 -23.136719 10.210938 -23.136719 C 8.046875 -23.136719 4.507812 -22.988281 1.082031 -23.136719 L 1.082031 -22.09375 C 3.019531 -21.945312 3.578125 -21.351562 3.578125 -20.269531 L 3.578125 -2.90625 C 3.578125 -1.601562 2.945312 -1.191406 0.929688 -1.042969 L 0.929688 0 C 4.136719 -0.113281 7.378906 -0.113281 10.582031 0 L 10.582031 -1.042969 C 8.605469 -1.191406 7.972656 -1.601562 7.972656 -2.90625 L 7.972656 -9.054688 L 8.90625 -9.203125 C 9.015625 -9.203125 9.128906 -9.242188 9.203125 -9.242188 L 12.59375 -4.433594 C 15.3125 -0.523438 18.292969 0.335938 21.238281 0.296875 L 22.019531 -0.894531 C 20.34375 -1.042969 18.257812 -2.792969 16.246094 -5.664062 Z M 7.972656 -21.984375 L 10.84375 -21.984375 C 14.308594 -21.984375 15.796875 -19.785156 15.796875 -16.804688 C 15.796875 -13.5625 14.160156 -11.101562 8.90625 -10.433594 L 7.972656 -10.320312 Z M 7.972656 -21.984375 "/></g></g></g><g fill="#280909" fill-opacity="1"><g transform="translate(315.161839, 269.737086)"><g><path d="M 17.550781 -6.109375 L 16.246094 -3.652344 C 15.277344 -1.898438 14.160156 -1.230469 11.363281 -1.230469 L 9.316406 -1.230469 C 8.195312 -1.230469 7.972656 -1.601562 7.972656 -2.90625 L 7.972656 -11.253906 L 12.40625 -11.253906 C 14.269531 -11.253906 14.753906 -10.320312 15.164062 -8.792969 L 16.097656 -8.792969 C 15.910156 -10.917969 15.910156 -12.855469 16.097656 -14.941406 L 15.164062 -14.941406 C 14.753906 -13.414062 14.269531 -12.519531 12.40625 -12.519531 L 7.972656 -12.519531 L 7.972656 -21.089844 C 7.972656 -21.683594 8.195312 -21.984375 8.792969 -21.984375 L 11.960938 -21.984375 C 14.53125 -21.984375 15.648438 -21.164062 16.617188 -19.078125 L 16.992188 -18.257812 L 17.996094 -18.257812 L 17.4375 -22.46875 C 17.363281 -23.027344 17.289062 -23.136719 16.804688 -23.136719 L 0.929688 -23.136719 L 0.929688 -22.09375 C 2.945312 -21.945312 3.578125 -21.683594 3.578125 -20.605469 L 3.578125 -2.90625 C 3.578125 -1.601562 2.945312 -1.191406 0.929688 -1.042969 L 0.929688 0 C 6.519531 -0.113281 11.664062 -0.113281 17.476562 0 C 17.585938 -2.011719 17.886719 -3.949219 18.628906 -6.109375 Z M 17.550781 -6.109375 "/></g></g></g></svg>